<svg width="44" height="43" viewBox="0 0 44 43" fill="none" xmlns="http://www.w3.org/2000/svg">
<path d="M10.7253 30.6374C12.2837 29.4728 14.0253 28.5546 15.9503 27.8827C17.8753 27.2109 19.892 26.8749 22.0003 26.8749C24.1087 26.8749 26.1253 27.2109 28.0503 27.8827C29.9753 28.5546 31.717 29.4728 33.2753 30.6374C34.3448 29.4131 35.1774 28.0246 35.7732 26.4718C36.3691 24.919 36.667 23.2617 36.667 21.4999C36.667 17.5284 35.2385 14.1466 32.3816 11.3546C29.5246 8.56259 26.0642 7.16659 22.0003 7.16659C17.9364 7.16659 14.476 8.56259 11.6191 11.3546C8.76213 14.1466 7.33366 17.5284 7.33366 21.4999C7.33366 23.2617 7.63158 24.919 8.22741 26.4718C8.82324 28.0246 9.65588 29.4131 10.7253 30.6374ZM22.0003 23.2916C20.1975 23.2916 18.6774 22.6869 17.4399 21.4775C16.2024 20.2681 15.5837 18.7826 15.5837 17.0208C15.5837 15.2589 16.2024 13.7734 17.4399 12.564C18.6774 11.3546 20.1975 10.7499 22.0003 10.7499C23.8031 10.7499 25.3232 11.3546 26.5607 12.564C27.7982 13.7734 28.417 15.2589 28.417 17.0208C28.417 18.7826 27.7982 20.2681 26.5607 21.4775C25.3232 22.6869 23.8031 23.2916 22.0003 23.2916ZM22.0003 39.4166C19.4642 39.4166 17.0809 38.9463 14.8503 38.0056C12.6198 37.065 10.6795 35.7885 9.02949 34.176C7.37949 32.5635 6.07324 30.6673 5.11074 28.4874C4.14824 26.3076 3.66699 23.9784 3.66699 21.4999C3.66699 19.0214 4.14824 16.6923 5.11074 14.5124C6.07324 12.3326 7.37949 10.4364 9.02949 8.82388C10.6795 7.21138 12.6198 5.93481 14.8503 4.99419C17.0809 4.05356 19.4642 3.58325 22.0003 3.58325C24.5364 3.58325 26.9198 4.05356 29.1503 4.99419C31.3809 5.93481 33.3212 7.21138 34.9712 8.82388C36.6212 10.4364 37.9274 12.3326 38.8899 14.5124C39.8524 16.6923 40.3337 19.0214 40.3337 21.4999C40.3337 23.9784 39.8524 26.3076 38.8899 28.4874C37.9274 30.6673 36.6212 32.5635 34.9712 34.176C33.3212 35.7885 31.3809 37.065 29.1503 38.0056C26.9198 38.9463 24.5364 39.4166 22.0003 39.4166Z" fill="#4CB750"/>
</svg>
